<?xml version="1.0"?>
<svg xmlns="http://www.w3.org/2000/svg" viewBox="0 0 24 24">
    <path style="text-indent:0;text-align:start;line-height:normal;text-transform:none;block-progression:tb;-inkscape-font-specification:Sans" d="M 5 2 C 3.3550302 2 2 3.3550302 2 5 L 2 19 C 2 20.64497 3.3550302 22 5 22 L 19 22 C 20.64497 22 22 20.64497 22 19 L 22 5 C 22 3.3550302 20.64497 2 19 2 L 5 2 z M 5 4 L 19 4 C 19.56503 4 20 4.4349698 20 5 L 20 19 C 20 19.56503 19.56503 20 19 20 L 5 20 C 4.4349698 20 4 19.56503 4 19 L 4 5 C 4 4.4349698 4.4349698 4 5 4 z M 6 6 L 6 8 L 14.59375 8 L 6 16.59375 L 7.40625 18 L 16 9.40625 L 16 18 L 18 18 L 18 6 L 6 6 z" overflow="visible" font-family="Sans"/>
</svg>
