<?xml version="1.0"?>
<svg xmlns="http://www.w3.org/2000/svg" viewBox="0 0 16 16">
    <path style="line-height:normal;text-indent:0;text-align:start;text-decoration-line:none;text-decoration-style:solid;text-decoration-color:#000;text-transform:none;block-progression:tb;isolation:auto;mix-blend-mode:normal" d="M 9 2 L 9 3 L 12.292969 3 L 6.0214844 9.2714844 L 6.7285156 9.9785156 L 13 3.7070312 L 13 7 L 14 7 L 14 2 L 9 2 z M 4 4 C 2.895 4 2 4.895 2 6 L 2 12 C 2 13.105 2.895 14 4 14 L 10 14 C 11.105 14 12 13.105 12 12 L 12 7 L 11 8 L 11 12 C 11 12.552 10.552 13 10 13 L 4 13 C 3.448 13 3 12.552 3 12 L 3 6 C 3 5.448 3.448 5 4 5 L 8 5 L 9 4 L 4 4 z" font-weight="400" font-family="sans-serif" white-space="normal" overflow="visible"/>
</svg>
