<?xml version="1.0"?>
<svg xmlns="http://www.w3.org/2000/svg" viewBox="0 0 50 50" enable-background="new 0 0 50 50">
    <path style="text-indent:0;text-align:start;line-height:normal;text-transform:none;block-progression:tb;-inkscape-font-specification:Bitstream Vera Sans" d="M 33.40625 0 A 1.001098 1.001098 0 0 0 33.59375 2 L 46.5625 2 L 25.6875 22.90625 A 1.0001 1.0001 0 1 0 27.09375 24.3125 L 48 3.4375 L 48 16.40625 A 1.0001 1.0001 0 1 0 50 16.40625 L 50 1 L 50 0 L 49 0 L 33.59375 0 A 1.0001 1.0001 0 0 0 33.5 0 A 1.001098 1.001098 0 0 0 33.40625 0 z M 2 10 C 1.4777778 10 0.93953051 10.185469 0.5625 10.5625 C 0.18546949 10.939531 0 11.477778 0 12 L 0 48 C 0 48.522222 0.18546949 49.060469 0.5625 49.4375 C 0.93953051 49.814531 1.4777778 50 2 50 L 38 50 C 38.522222 50 39.060469 49.814531 39.4375 49.4375 C 39.814531 49.060469 40 48.522222 40 48 L 40 18 A 1.0001 1.0001 0 1 0 38 18 L 38 48 L 2 48 L 2 12 L 32 12 A 1.0001 1.0001 0 1 0 32 10 L 2 10 z" overflow="visible" enable-background="accumulate" font-family="Bitstream Vera Sans"/>
</svg>
